<svg width="127" height="23" viewBox="0 0 127 23" fill="none" xmlns="http://www.w3.org/2000/svg">
<g id="About" clip-path="url(#clip0_35_1345)">
<g id="Frame 38666">
<g id="Frame 39">
<g id="Frame 37">
<g id="Frame 41">
<g id="Feature Cards">
<rect x="-139.751" y="-406.035" width="405.871" height="590.871" rx="10.7289" stroke="#444444" stroke-width="1.12936"/>
<g id="Frame 24">
<path id="Innovate" d="M7.86781e-06 22.4V2.28882e-05H4.32001V22.4H7.86781e-06ZM7.77826 22.4V6.52802H11.5223L11.8743 9.15202H11.9383C12.4503 8.23469 13.1543 7.50936 14.0503 6.97602C14.9463 6.42136 16.0449 6.14402 17.3463 6.14402C18.6689 6.14402 19.7889 6.43202 20.7063 7.00802C21.6236 7.56269 22.3169 8.38402 22.7863 9.47202C23.2769 10.56 23.5223 11.904 23.5223 13.504V22.4H19.2343V13.888C19.2343 12.5654 18.9676 11.552 18.4343 10.848C17.9009 10.144 17.0476 9.79202 15.8743 9.79202C15.1489 9.79202 14.4983 9.97336 13.9223 10.336C13.3676 10.6774 12.9196 11.1787 12.5783 11.84C12.2583 12.48 12.0983 13.2694 12.0983 14.208V22.4H7.77826ZM26.6533 22.4V6.52802H30.3973L30.7493 9.15202H30.8133C31.3253 8.23469 32.0293 7.50936 32.9253 6.97602C33.8213 6.42136 34.9199 6.14402 36.2213 6.14402C37.5439 6.14402 38.6639 6.43202 39.5813 7.00802C40.4986 7.56269 41.1919 8.38402 41.6613 9.47202C42.1519 10.56 42.3973 11.904 42.3973 13.504V22.4H38.1093V13.888C38.1093 12.5654 37.8426 11.552 37.3093 10.848C36.7759 10.144 35.9226 9.79202 34.7493 9.79202C34.0239 9.79202 33.3733 9.97336 32.7973 10.336C32.2426 10.6774 31.7946 11.1787 31.4533 11.84C31.1333 12.48 30.9733 13.2694 30.9733 14.208V22.4H26.6533ZM53.2083 22.784C51.6723 22.784 50.2856 22.432 49.0483 21.728C47.8109 21.024 46.8296 20.0427 46.1043 18.784C45.4003 17.5254 45.0483 16.0854 45.0483 14.464C45.0483 12.8214 45.4109 11.3814 46.1363 10.144C46.8616 8.88536 47.8429 7.90402 49.0803 7.20002C50.3176 6.49602 51.6936 6.14402 53.2083 6.14402C54.7443 6.14402 56.1309 6.49602 57.3683 7.20002C58.6056 7.90402 59.5763 8.88536 60.2803 10.144C61.0056 11.3814 61.3683 12.8214 61.3683 14.464C61.3683 16.1067 61.0056 17.5574 60.2803 18.816C59.5549 20.0534 58.5736 21.024 57.3363 21.728C56.1203 22.432 54.7443 22.784 53.2083 22.784ZM53.2083 19.104C53.8909 19.104 54.5096 18.9334 55.0643 18.592C55.6403 18.2507 56.0989 17.7387 56.4403 17.056C56.8029 16.352 56.9843 15.488 56.9843 14.464C56.9843 13.44 56.8029 12.5867 56.4403 11.904C56.0989 11.2 55.6509 10.6774 55.0963 10.336C54.5416 9.99469 53.9229 9.82402 53.2403 9.82402C52.5576 9.82402 51.9283 9.99469 51.3523 10.336C50.7763 10.6774 50.3176 11.2 49.9763 11.904C49.6349 12.5867 49.4643 13.44 49.4643 14.464C49.4643 15.488 49.6349 16.352 49.9763 17.056C50.3176 17.7387 50.7656 18.2507 51.3203 18.592C51.8963 18.9334 52.5256 19.104 53.2083 19.104ZM67.75 22.4L62.278 6.52802H66.822L70.662 18.944H70.758L74.598 6.52802H79.078L73.638 22.4H67.75ZM85.9348 22.784C84.6334 22.784 83.5561 22.5707 82.7028 22.144C81.8494 21.7174 81.2201 21.1414 80.8148 20.416C80.4094 19.6907 80.2068 18.8907 80.2068 18.016C80.2068 17.0347 80.4521 16.1707 80.9428 15.424C81.4548 14.6774 82.2228 14.1014 83.2468 13.696C84.2708 13.2694 85.5614 13.056 87.1188 13.056H91.1188C91.1188 12.2667 91.0014 11.6267 90.7668 11.136C90.5534 10.624 90.2121 10.24 89.7428 9.98402C89.2948 9.72802 88.7188 9.60002 88.0148 9.60002C87.1828 9.60002 86.4681 9.79202 85.8708 10.176C85.2948 10.5387 84.9321 11.104 84.7828 11.872H80.5908C80.7188 10.6987 81.1028 9.68536 81.7428 8.83202C82.4041 7.97869 83.2788 7.31736 84.3668 6.84802C85.4548 6.37869 86.6708 6.14402 88.0148 6.14402C89.5508 6.14402 90.8734 6.40002 91.9828 6.91202C93.0921 7.40269 93.9454 8.13869 94.5428 9.12002C95.1401 10.08 95.4388 11.2534 95.4388 12.64V22.4H91.8228L91.3428 19.936H91.2788C91.0014 20.384 90.6814 20.7894 90.3188 21.152C89.9561 21.4934 89.5508 21.792 89.1028 22.048C88.6761 22.2827 88.1961 22.464 87.6628 22.592C87.1294 22.72 86.5534 22.784 85.9348 22.784ZM87.1508 19.456C87.7268 19.456 88.2388 19.36 88.6868 19.168C89.1348 18.9547 89.5081 18.6774 89.8068 18.336C90.1268 17.9947 90.3721 17.6 90.5428 17.152C90.7348 16.6827 90.8628 16.2027 90.9268 15.712H87.5988C86.9374 15.712 86.3934 15.7974 85.9668 15.968C85.5614 16.1174 85.2628 16.3414 85.0708 16.64C84.8788 16.9174 84.7828 17.248 84.7828 17.632C84.7828 18.016 84.8788 18.3467 85.0708 18.624C85.2628 18.9014 85.5401 19.1147 85.9028 19.264C86.2654 19.392 86.6814 19.456 87.1508 19.456ZM105.604 22.4C104.473 22.4 103.481 22.2294 102.628 21.888C101.796 21.5254 101.145 20.9387 100.676 20.128C100.207 19.296 99.972 18.1654 99.972 16.736V10.048H97.252V6.52802H99.972L100.452 2.20802H104.292V6.52802H108.516V10.048H104.292V16.8C104.292 17.5467 104.452 18.0694 104.772 18.368C105.092 18.6454 105.636 18.784 106.404 18.784H108.42V22.4H105.604ZM118.368 22.784C116.746 22.784 115.306 22.4427 114.048 21.76C112.81 21.0774 111.84 20.1174 111.136 18.88C110.432 17.6427 110.08 16.224 110.08 14.624C110.08 12.96 110.421 11.4987 111.104 10.24C111.808 8.96002 112.778 7.95736 114.016 7.23202C115.274 6.50669 116.736 6.14402 118.4 6.14402C119.978 6.14402 121.365 6.48536 122.56 7.16802C123.776 7.85069 124.714 8.78936 125.376 9.98402C126.058 11.1574 126.4 12.4907 126.4 13.984C126.4 14.1974 126.4 14.4427 126.4 14.72C126.4 14.976 126.378 15.2427 126.336 15.52H113.152V12.864H122.016C121.952 11.8827 121.578 11.0934 120.896 10.496C120.234 9.89869 119.402 9.60002 118.4 9.60002C117.653 9.60002 116.97 9.77069 116.352 10.112C115.733 10.432 115.242 10.9227 114.88 11.584C114.517 12.2454 114.336 13.088 114.336 14.112V15.04C114.336 15.9147 114.506 16.672 114.848 17.312C115.189 17.9307 115.658 18.4107 116.256 18.752C116.874 19.0934 117.568 19.264 118.336 19.264C119.125 19.264 119.786 19.0934 120.32 18.752C120.853 18.3894 121.258 17.9307 121.536 17.376H125.952C125.632 18.3787 125.12 19.296 124.416 20.128C123.712 20.9387 122.848 21.5894 121.824 22.08C120.8 22.5494 119.648 22.784 118.368 22.784Z" fill="#F3801A"/>
</g>
</g>
</g>
</g>
</g>
</g>
</g>
<defs>
<clipPath id="clip0_35_1345">
</clipPath>
</defs>
</svg>
