<svg width="86" height="20" viewBox="0 0 86 20" fill="none" xmlns="http://www.w3.org/2000/svg">
<rect width="86" height="20" fill="#1E1E1E"/>
<g id="About" clip-path="url(#clip0_35_1345)">
<rect width="1512" height="5901" transform="translate(-179.128 -2198.76)" fill="#101010"/>
<g id="Frame 38666">
<g id="Frame 43">
<g id="Group 1000004154">
<g id="Frame 32">
<g id="Frame 30">
<path id="Product" d="M7.10145 12.7375H2.45483V9.80678H7.10145C7.81953 9.80678 8.40401 9.68988 8.85489 9.45609C9.30578 9.21395 9.63559 8.87996 9.84433 8.45412C10.0531 8.02829 10.1574 7.54818 10.1574 7.0138C10.1574 6.47106 10.0531 5.9659 9.84433 5.49832C9.63559 5.03074 9.30578 4.655 8.85489 4.37111C8.40401 4.08722 7.81953 3.94527 7.10145 3.94527H3.75738V19.2378H7.35745e-06V1.00199H7.10145C8.52925 1.00199 9.75249 1.26083 10.7712 1.77852C11.7982 2.28785 12.583 2.9934 13.1258 3.89517C13.6685 4.79694 13.9399 5.82813 13.9399 6.98875C13.9399 8.16606 13.6685 9.18472 13.1258 10.0447C12.583 10.9048 11.7982 11.5686 10.7712 12.0362C9.75249 12.5037 8.52925 12.7375 7.10145 12.7375ZM19.4011 8.64199V19.2378H15.794V5.68619H19.1882L19.4011 8.64199ZM23.4841 5.59852L23.4215 8.94258C23.2461 8.91753 23.0332 8.89666 22.7827 8.87996C22.5406 8.85491 22.3193 8.84238 22.1189 8.84238C21.6096 8.84238 21.1671 8.90918 20.7913 9.04278C20.4239 9.16802 20.115 9.35589 19.8645 9.60638C19.6224 9.85688 19.4387 10.1616 19.3134 10.5207C19.1965 10.8797 19.1297 11.2889 19.113 11.7481L18.3866 11.5226C18.3866 10.6459 18.4743 9.84018 18.6496 9.1054C18.825 8.36228 19.0796 7.71517 19.4136 7.16409C19.756 6.61301 20.1734 6.18717 20.6661 5.88658C21.1587 5.58599 21.7223 5.4357 22.3569 5.4357C22.5573 5.4357 22.7619 5.4524 22.9706 5.4858C23.1793 5.51084 23.3505 5.54842 23.4841 5.59852ZM23.7226 12.5998V12.3367C23.7226 11.3431 23.8645 10.4288 24.1484 9.59386C24.4323 8.75054 24.8456 8.01994 25.3883 7.40206C25.9311 6.78418 26.5991 6.30407 27.3923 5.96173C28.1855 5.61104 29.0956 5.4357 30.1226 5.4357C31.1497 5.4357 32.064 5.61104 32.8655 5.96173C33.6671 6.30407 34.3393 6.78418 34.882 7.40206C35.4331 8.01994 35.8506 8.75054 36.1344 9.59386C36.4183 10.4288 36.5603 11.3431 36.5603 12.3367V12.5998C36.5603 13.585 36.4183 14.4993 36.1344 15.3426C35.8506 16.1776 35.4331 16.9082 34.882 17.5344C34.3393 18.1523 33.6713 18.6324 32.8781 18.9748C32.0848 19.3171 31.1747 19.4883 30.1477 19.4883C29.1207 19.4883 28.2064 19.3171 27.4048 18.9748C26.6116 18.6324 25.9394 18.1523 25.3883 17.5344C24.8456 16.9082 24.4323 16.1776 24.1484 15.3426C23.8645 14.4993 23.7226 13.585 23.7226 12.5998ZM27.3297 12.3367V12.5998C27.3297 13.1675 27.3798 13.6978 27.48 14.1904C27.5802 14.683 27.7388 15.1172 27.9559 15.4929C28.1813 15.8603 28.4736 16.1484 28.8326 16.3571C29.1916 16.5659 29.63 16.6703 30.1477 16.6703C30.6487 16.6703 31.0787 16.5659 31.4377 16.3571C31.7968 16.1484 32.0848 15.8603 32.3019 15.4929C32.519 15.1172 32.6777 14.683 32.7779 14.1904C32.8864 13.6978 32.9407 13.1675 32.9407 12.5998V12.3367C32.9407 11.7857 32.8864 11.268 32.7779 10.7837C32.6777 10.2911 32.5148 9.85688 32.2894 9.48114C32.0723 9.09705 31.7842 8.79646 31.4252 8.57937C31.0662 8.36228 30.632 8.25373 30.1226 8.25373C29.6133 8.25373 29.1791 8.36228 28.8201 8.57937C28.4694 8.79646 28.1813 9.09705 27.9559 9.48114C27.7388 9.85688 27.5802 10.2911 27.48 10.7837C27.3798 11.268 27.3297 11.7857 27.3297 12.3367ZM46.2673 16.282V2.57492e-05H49.8995V19.2378H46.6306L46.2673 16.282ZM37.7005 12.6248V12.3618C37.7005 11.3264 37.8174 10.3871 38.0512 9.54376C38.285 8.69209 38.6273 7.96149 39.0782 7.35196C39.5291 6.74243 40.0844 6.27067 40.744 5.93668C41.4036 5.60269 42.1551 5.4357 42.9984 5.4357C43.7916 5.4357 44.4847 5.60269 45.0775 5.93668C45.6787 6.27067 46.188 6.7466 46.6055 7.36448C47.0313 7.97401 47.3737 8.69626 47.6325 9.53124C47.8914 10.3579 48.0792 11.2638 48.1961 12.2491V12.8252C48.0792 13.7687 47.8914 14.6454 47.6325 15.4554C47.3737 16.2653 47.0313 16.975 46.6055 17.5845C46.188 18.1857 45.6787 18.6533 45.0775 18.9873C44.4763 19.3213 43.7749 19.4883 42.9734 19.4883C42.1301 19.4883 41.3786 19.3171 40.7189 18.9748C40.0677 18.6324 39.5166 18.1523 39.0657 17.5344C38.6232 16.9166 38.285 16.1901 38.0512 15.3552C37.8174 14.5202 37.7005 13.6101 37.7005 12.6248ZM41.3076 12.3618V12.6248C41.3076 13.1842 41.3494 13.7061 41.4328 14.1904C41.5247 14.6747 41.6708 15.1047 41.8712 15.4804C42.08 15.8478 42.3471 16.1359 42.6728 16.3446C43.0068 16.545 43.4117 16.6452 43.8877 16.6452C44.5055 16.6452 45.0149 16.5074 45.4157 16.2319C45.8165 15.948 46.1212 15.5597 46.33 15.0671C46.5471 14.5745 46.6723 14.0067 46.7057 13.3638V11.723C46.6807 11.197 46.6055 10.7252 46.4803 10.3078C46.3634 9.88193 46.188 9.51871 45.9542 9.21812C45.7288 8.91753 45.4449 8.68374 45.1026 8.51675C44.7686 8.34975 44.372 8.26625 43.9127 8.26625C43.4451 8.26625 43.0443 8.3748 42.7104 8.59189C42.3764 8.80064 42.105 9.0887 41.8963 9.45609C41.6959 9.82348 41.5456 10.2577 41.4454 10.7586C41.3535 11.2513 41.3076 11.7857 41.3076 12.3618ZM60.2202 15.9939V5.68619H63.8273V19.2378H60.4331L60.2202 15.9939ZM60.621 13.2135L61.6856 13.1884C61.6856 14.0902 61.5812 14.9293 61.3725 15.7059C61.1637 16.474 60.8506 17.142 60.4331 17.7098C60.0157 18.2692 59.4896 18.7076 58.855 19.0249C58.2205 19.3338 57.4732 19.4883 56.6131 19.4883C55.9535 19.4883 55.344 19.3964 54.7846 19.2127C54.2335 19.0207 53.7575 18.7243 53.3568 18.3235C52.9643 17.9144 52.6554 17.3925 52.4299 16.7579C52.2128 16.115 52.1043 15.3426 52.1043 14.4409V5.68619H55.7114V14.4659C55.7114 14.8667 55.7573 15.2049 55.8491 15.4804C55.9493 15.756 56.0871 15.9814 56.2625 16.1567C56.4378 16.3321 56.6424 16.4573 56.8762 16.5325C57.1183 16.6076 57.3855 16.6452 57.6777 16.6452C58.4209 16.6452 59.0053 16.4949 59.4312 16.1943C59.8654 15.8937 60.1701 15.4846 60.3455 14.9669C60.5292 14.4409 60.621 13.8564 60.621 13.2135ZM71.6682 16.6703C72.1107 16.6703 72.5032 16.5868 72.8455 16.4198C73.1879 16.2444 73.455 16.0023 73.6471 15.6933C73.8475 15.376 73.9519 15.0045 73.9602 14.5786H77.3544C77.346 15.5305 77.0914 16.378 76.5904 17.1211C76.0894 17.8559 75.4172 18.4362 74.5739 18.8621C73.7306 19.2795 72.7871 19.4883 71.7434 19.4883C70.6913 19.4883 69.7728 19.3129 68.9879 18.9623C68.2114 18.6116 67.5643 18.1273 67.0466 17.5094C66.529 16.8832 66.1407 16.1567 65.8818 15.3301C65.623 14.4951 65.4936 13.6017 65.4936 12.6499V12.2866C65.4936 11.3264 65.623 10.433 65.8818 9.60638C66.1407 8.77141 66.529 8.04499 67.0466 7.42711C67.5643 6.80088 68.2114 6.31242 68.9879 5.96173C69.7645 5.61104 70.6746 5.4357 71.7183 5.4357C72.8288 5.4357 73.8016 5.64861 74.6365 6.07445C75.4799 6.50029 76.1395 7.10982 76.6154 7.90304C77.0997 8.68791 77.346 9.61891 77.3544 10.696H73.9602C73.9519 10.2451 73.8558 9.836 73.6721 9.46861C73.4968 9.10123 73.238 8.80899 72.8956 8.59189C72.5616 8.36645 72.1483 8.25373 71.6557 8.25373C71.1296 8.25373 70.6996 8.36645 70.3656 8.59189C70.0317 8.80899 69.7728 9.10958 69.5891 9.49366C69.4054 9.8694 69.276 10.2994 69.2009 10.7837C69.1341 11.2596 69.1007 11.7606 69.1007 12.2866V12.6499C69.1007 13.1759 69.1341 13.6811 69.2009 14.1653C69.2677 14.6496 69.3929 15.0796 69.5766 15.4554C69.7686 15.8311 70.0317 16.1275 70.3656 16.3446C70.6996 16.5617 71.1338 16.6703 71.6682 16.6703ZM85.571 5.68619V8.2412H77.6805V5.68619H85.571ZM79.6343 2.34212H83.2414V15.1548C83.2414 15.5472 83.2915 15.8478 83.3917 16.0565C83.5003 16.2653 83.6589 16.4114 83.8677 16.4949C84.0764 16.5701 84.3394 16.6076 84.6567 16.6076C84.8821 16.6076 85.0825 16.5993 85.2579 16.5826C85.4416 16.5575 85.596 16.5325 85.7213 16.5074L85.7338 19.1626C85.4249 19.2628 85.0909 19.3422 84.7319 19.4006C84.3728 19.4591 83.9762 19.4883 83.542 19.4883C82.7488 19.4883 82.0558 19.3589 81.4629 19.1C80.8785 18.8328 80.4276 18.407 80.1103 17.8225C79.793 17.238 79.6343 16.4699 79.6343 15.518V2.34212Z" fill="white"/>
</g>
</g>
</g>
</g>
</g>
</g>
<defs>
<clipPath id="clip0_35_1345">
<rect width="1512" height="5901" fill="white" transform="translate(-179.128 -2198.76)"/>
</clipPath>
</defs>
</svg>
