<svg preserveAspectRatio="none" width="100%" height="100%" overflow="visible" style="display: block;" viewBox="0 0 58.6737 58.6737" fill="none" xmlns="http://www.w3.org/2000/svg">
<g id="Icon" clip-path="url(#clip0_0_7)">
<path id="Vector" d="M29.3369 57.2068C44.7291 57.2068 57.2069 44.729 57.2069 29.3368C57.2069 13.9446 44.7291 1.46679 29.3369 1.46679C13.9447 1.46679 1.46685 13.9446 1.46685 29.3368C1.46685 44.729 13.9447 57.2068 29.3369 57.2068Z" stroke="var(--stroke-0, #F3801A)" stroke-width="2.93369"/>
<path id="Vector_2" d="M20.5358 29.3368H38.1379M29.3369 20.5358V38.1379" stroke="var(--stroke-0, #F3801A)" stroke-width="2.93369" stroke-linecap="round"/>
<path id="Vector_3" d="M29.3369 35.2042C32.5773 35.2042 35.2042 32.5773 35.2042 29.3368C35.2042 26.0964 32.5773 23.4694 29.3369 23.4694C26.0964 23.4694 23.4695 26.0964 23.4695 29.3368C23.4695 32.5773 26.0964 35.2042 29.3369 35.2042Z" stroke="var(--stroke-0, #F3801A)" stroke-width="2.93369"/>
</g>
<defs>
<clipPath id="clip0_0_7">
</clipPath>
</defs>
</svg>
