<svg preserveAspectRatio="none" width="100%" height="100%" overflow="visible" style="display: block;" viewBox="0 0 58.6737 58.6737" fill="none" xmlns="http://www.w3.org/2000/svg">
<g id="Icon" clip-path="url(#clip0_0_11)">
<path id="Vector" d="M29.3369 57.2068C44.7291 57.2068 57.2069 44.729 57.2069 29.3368C57.2069 13.9446 44.7291 1.46679 29.3369 1.46679C13.9447 1.46679 1.46685 13.9446 1.46685 29.3368C1.46685 44.729 13.9447 57.2068 29.3369 57.2068Z" stroke="var(--stroke-0, #F3801A)" stroke-width="2.93369"/>
<path id="Vector_2" d="M19.069 38.1379C19.069 32.4671 23.6661 27.87 29.3369 27.87C35.0077 27.87 39.6048 32.4671 39.6048 38.1379" stroke="var(--stroke-0, #F3801A)" stroke-width="2.93369" stroke-linecap="round"/>
<path id="Vector_3" d="M29.3369 27.87C32.5773 27.87 35.2042 25.2431 35.2042 22.0026C35.2042 18.7621 32.5773 16.1352 29.3369 16.1352C26.0964 16.1352 23.4695 18.7621 23.4695 22.0026C23.4695 25.2431 26.0964 27.87 29.3369 27.87Z" stroke="var(--stroke-0, #F3801A)" stroke-width="2.93369"/>
</g>
<defs>
<clipPath id="clip0_0_11">
</clipPath>
</defs>
</svg>
