<svg width="44" height="44" viewBox="0 0 44 44" fill="none" xmlns="http://www.w3.org/2000/svg">
<path d="M37.3079 29.3011L36.0626 29.1924L37.3662 14.2492C37.4527 13.2584 37.142 12.2738 36.5025 11.5121C35.863 10.7504 34.9471 10.2739 33.9563 10.1875L11.5415 8.23202C10.5507 8.14559 9.56612 8.45628 8.8044 9.09577C8.04268 9.73525 7.56619 10.6511 7.47976 11.6419L6.17612 26.5852L4.93085 26.4765C4.60059 26.4477 4.2724 26.5513 4.0185 26.7644C3.76459 26.9776 3.60576 27.2829 3.57695 27.6132L3.35968 30.1037C3.27324 31.0945 3.58394 32.0791 4.22342 32.8408C4.8629 33.6025 5.77878 34.079 6.76958 34.1654L34.1655 36.5554C35.1563 36.6419 36.1409 36.3312 36.9026 35.6917C37.6643 35.0522 38.1408 34.1363 38.2272 33.1455L38.4445 30.655C38.4733 30.3247 38.3698 29.9965 38.1566 29.7426C37.9434 29.4887 37.6381 29.3299 37.3079 29.3011ZM9.9703 11.8592C9.99911 11.5289 10.1579 11.2236 10.4118 11.0105C10.6658 10.7973 10.9939 10.6938 11.3242 10.7226L33.7391 12.678C34.0693 12.7068 34.3746 12.8657 34.5878 13.1196C34.801 13.3735 34.9045 13.7017 34.8757 14.0319L33.5721 28.9752L8.66666 26.8024L9.9703 11.8592ZM35.7367 32.9283C35.7079 33.2585 35.5491 33.5638 35.2952 33.777C35.0413 33.9901 34.7131 34.0937 34.3828 34.0649L6.98685 31.6749C6.65658 31.6461 6.35129 31.4872 6.13813 31.2333C5.92497 30.9794 5.8214 30.6512 5.85022 30.321L5.95885 29.0757L35.8453 31.683L35.7367 32.9283ZM25.9415 15.762C25.9127 16.0923 25.7539 16.3976 25.5 16.6107C25.2461 16.8239 24.9179 16.9275 24.5876 16.8986L19.6066 16.4641C19.2763 16.4353 18.971 16.2765 18.7578 16.0226C18.5447 15.7686 18.4411 15.4405 18.4699 15.1102C18.4987 14.7799 18.6576 14.4746 18.9115 14.2615C19.1654 14.0483 19.4936 13.9447 19.8238 13.9736L24.8049 14.4081C25.1352 14.4369 25.4405 14.5957 25.6536 14.8497C25.8668 15.1036 25.9704 15.4317 25.9415 15.762Z" fill="white"/>
</svg>
