<svg width="41" height="41" viewBox="0 0 41 41" fill="none" xmlns="http://www.w3.org/2000/svg">
<g id="components">
<path d="M-59.083 -70.5573C-59.083 -71.6619 -58.1876 -72.5573 -57.083 -72.5573H1703.92C1705.02 -72.5573 1705.92 -71.6619 1705.92 -70.5573V1879.44C1705.92 1880.55 1705.02 1881.44 1703.92 1881.44H-57.083C-58.1876 1881.44 -59.083 1880.55 -59.083 1879.44V-70.5573Z" fill="#444444"/>
<path d="M-57.083 -72.5573V-71.5573H1703.92V-72.5573V-73.5573H-57.083V-72.5573ZM1705.92 -70.5573H1704.92V1879.44H1705.92H1706.92V-70.5573H1705.92ZM1703.92 1881.44V1880.44H-57.083V1881.44V1882.44H1703.92V1881.44ZM-59.083 1879.44H-58.083V-70.5573H-59.083H-60.083V1879.44H-59.083ZM-57.083 1881.44V1880.44C-57.6353 1880.44 -58.083 1879.99 -58.083 1879.44H-59.083H-60.083C-60.083 1881.1 -58.7399 1882.44 -57.083 1882.44V1881.44ZM1705.92 1879.44H1704.92C1704.92 1879.99 1704.47 1880.44 1703.92 1880.44V1881.44V1882.44C1705.57 1882.44 1706.92 1881.1 1706.92 1879.44H1705.92ZM1703.92 -72.5573V-71.5573C1704.47 -71.5573 1704.92 -71.1096 1704.92 -70.5573H1705.92H1706.92C1706.92 -72.2142 1705.57 -73.5573 1703.92 -73.5573V-72.5573ZM-57.083 -72.5573V-73.5573C-58.7398 -73.5573 -60.083 -72.2142 -60.083 -70.5573H-59.083H-58.083C-58.083 -71.1096 -57.6353 -71.5573 -57.083 -71.5573V-72.5573Z" fill="white" fill-opacity="0.1"/>
<g id="product">
<rect x="-23.5809" y="-19.2356" width="197" height="79" rx="11.5" transform="rotate(-0.238389 -23.5809 -19.2356)" stroke="#444444"/>
<g id="Megaphone">
<path id="Vector" d="M38.8277 18.7551C38.8173 16.7666 38.0186 14.8635 36.6067 13.4632C35.1947 12.063 33.285 11.2801 31.2965 11.2863L25.0778 11.3122C24.623 11.2875 16.6974 10.7627 9.12578 4.46602C8.76014 4.16153 8.31521 3.96771 7.84323 3.90732C7.37126 3.84693 6.89186 3.92248 6.46134 4.12511C6.03082 4.32773 5.66706 4.64901 5.4128 5.0512C5.15854 5.45339 5.02434 5.91978 5.02596 6.3956L5.12997 31.3954C5.13202 31.8713 5.26988 32.3368 5.52737 32.7371C5.78485 33.1374 6.15125 33.4559 6.5835 33.6551C7.01575 33.8543 7.49588 33.926 7.96748 33.8618C8.43907 33.7975 8.88253 33.6 9.24572 33.2923C15.1266 28.3178 21.2504 26.8736 23.8596 26.4659L23.8802 31.4221C23.8814 31.834 23.9844 32.2393 24.18 32.6019C24.3756 32.9644 24.6578 33.273 25.0014 33.5002L26.7249 34.6384C27.058 34.8587 27.4391 34.996 27.8362 35.0389C28.2333 35.0816 28.6349 35.0287 29.0074 34.8844C29.3798 34.7401 29.7122 34.5086 29.9768 34.2094C30.2414 33.9102 30.4305 33.552 30.5282 33.1647L32.3384 26.2259C34.1416 25.9783 35.7936 25.0844 36.9872 23.7102C38.1809 22.3361 38.8349 20.5752 38.8277 18.7551ZM7.62991 31.374L7.52594 6.3852C14.2383 11.9683 21.091 13.3601 23.8065 13.6988L23.8491 23.9299C21.1396 24.2975 14.3003 25.7431 7.62991 31.374ZM28.1037 32.5389L28.1038 32.5561L26.3803 31.4179L26.359 26.307L29.734 26.293L28.1037 32.5389ZM31.3485 23.7862L26.3486 23.807L26.307 13.8071L31.3069 13.7863C32.633 13.7808 33.907 14.3023 34.8485 15.2361C35.7901 16.1698 36.3222 17.4394 36.3277 18.7655C36.3332 20.0915 35.8117 21.3655 34.878 22.3071C33.9442 23.2486 32.6746 23.7807 31.3485 23.7862Z" fill="white"/>
</g>
</g>
</g>
</svg>
