<svg width="44" height="44" viewBox="0 0 44 44" fill="none" xmlns="http://www.w3.org/2000/svg">
<rect width="44" height="44" fill="#1E1E1E"/>
<g id="components">
<path d="M-75.5109 -194.456C-75.5109 -195.561 -74.6154 -196.456 -73.5109 -196.456H1687.49C1688.59 -196.456 1689.49 -195.561 1689.49 -194.456V1755.54C1689.49 1756.65 1688.59 1757.54 1687.49 1757.54H-73.5109C-74.6154 1757.54 -75.5109 1756.65 -75.5109 1755.54V-194.456Z" fill="#444444"/>
<path d="M-73.5109 -196.456V-195.456H1687.49V-196.456V-197.456H-73.5109V-196.456ZM1689.49 -194.456H1688.49V1755.54H1689.49H1690.49V-194.456H1689.49ZM1687.49 1757.54V1756.54H-73.5109V1757.54V1758.54H1687.49V1757.54ZM-75.5109 1755.54H-74.5109V-194.456H-75.5109H-76.5109V1755.54H-75.5109ZM-73.5109 1757.54V1756.54C-74.0631 1756.54 -74.5109 1756.1 -74.5109 1755.54H-75.5109H-76.5109C-76.5109 1757.2 -75.1677 1758.54 -73.5109 1758.54V1757.54ZM1689.49 1755.54H1688.49C1688.49 1756.1 1688.04 1756.54 1687.49 1756.54V1757.54V1758.54C1689.15 1758.54 1690.49 1757.2 1690.49 1755.54H1689.49ZM1687.49 -196.456V-195.456C1688.04 -195.456 1688.49 -195.008 1688.49 -194.456H1689.49H1690.49C1690.49 -196.113 1689.15 -197.456 1687.49 -197.456V-196.456ZM-73.5109 -196.456V-197.456C-75.1677 -197.456 -76.5109 -196.113 -76.5109 -194.456H-75.5109H-74.5109C-74.5109 -195.008 -74.0632 -195.456 -73.5109 -195.456V-196.456Z" fill="white" fill-opacity="0.1"/>
<g id="design">
<rect x="-24.9728" y="-14.4013" width="183" height="79" rx="11.5" transform="rotate(-4.54981 -24.9728 -14.4013)" fill="#191919"/>
<rect x="-24.9728" y="-14.4013" width="183" height="79" rx="11.5" transform="rotate(-4.54981 -24.9728 -14.4013)" stroke="#444444"/>
<g id="PenNib" clip-path="url(#clip0_9_973)">
<path id="Vector" d="M39.7766 14.5348C39.7516 14.2073 39.6618 13.8881 39.5123 13.5956C39.3628 13.3032 39.1567 13.0434 38.9059 12.8313L27.3571 2.98359C27.1073 2.77053 26.8179 2.60877 26.5056 2.50756C26.1932 2.40634 25.864 2.36766 25.5366 2.3937C25.2093 2.41975 24.8903 2.51002 24.5979 2.65936C24.3055 2.8087 24.0453 3.01418 23.8323 3.26408L19.7565 8.04464L10.9924 12.1544C10.594 12.3402 10.2514 12.6273 9.99893 12.9872C9.74643 13.347 9.59287 13.7668 9.55364 14.2047L7.66227 36.2131C7.64661 36.394 7.67055 36.5762 7.73245 36.7469C7.79434 36.9176 7.89269 37.0728 8.02065 37.2017C8.14861 37.3306 8.30311 37.43 8.4734 37.4931C8.64369 37.5562 8.82569 37.5814 9.00671 37.567C9.07557 37.5612 9.14386 37.55 9.21095 37.5335L30.6417 32.1854C31.0675 32.079 31.4577 31.8625 31.7732 31.5576C32.0888 31.2527 32.3185 30.8701 32.4393 30.4482L35.1113 21.1445L39.1864 16.3561C39.4006 16.1068 39.5631 15.8174 39.6644 15.5047C39.7657 15.192 39.8039 14.8623 39.7766 14.5348ZM30.0365 29.7601L12.3911 34.1628L19.1822 26.1974C20.1434 26.6221 21.2253 26.6867 22.2302 26.3793C23.235 26.0719 24.0957 25.4132 24.6548 24.5234C25.2139 23.6337 25.4341 22.5724 25.2751 21.5337C25.1161 20.495 24.5885 19.5482 23.7889 18.8664C22.9892 18.1847 21.9709 17.8135 20.9201 17.8208C19.8693 17.8281 18.8562 18.2133 18.0661 18.9061C17.276 19.5989 16.7616 20.5529 16.617 21.5937C16.4725 22.6345 16.7073 23.6926 17.2787 24.5745L10.4879 32.543L12.0441 14.4187L20.3356 10.5347L32.5604 20.9587L30.0365 29.7601ZM19.081 22.3449C19.0515 21.9752 19.1324 21.6051 19.3133 21.2814C19.4942 20.9577 19.7671 20.6949 20.0974 20.5262C20.4276 20.3576 20.8005 20.2907 21.1688 20.3339C21.5371 20.3772 21.8843 20.5287 22.1665 20.7693C22.4487 21.0099 22.6532 21.3288 22.7542 21.6856C22.8552 22.0424 22.8481 22.4212 22.7338 22.774C22.6195 23.1268 22.4032 23.4377 22.1121 23.6676C21.8211 23.8974 21.4685 24.0358 21.0988 24.0652C20.6031 24.1047 20.112 23.9456 19.7336 23.6229C19.3552 23.3003 19.1204 22.8406 19.081 22.3449ZM33.8438 18.7688L22.2935 8.92272L25.7343 4.88707L37.2845 14.7331L33.8438 18.7688Z" fill="white"/>
</g>
</g>
</g>
<defs>
<clipPath id="clip0_9_973">
<rect width="40" height="40" fill="white" transform="translate(0 3.17303) rotate(-4.54981)"/>
</clipPath>
</defs>
</svg>
