<svg preserveAspectRatio="none" width="100%" height="100%" overflow="visible" style="display: block;" viewBox="0 0 65.9333 65.9333" fill="none" xmlns="http://www.w3.org/2000/svg">
<g id="Socials">
<circle id="Ellipse 178" cx="32.9666" cy="32.967" r="24.532" fill="var(--fill-0, #F3801A)"/>
<path id="Vector" d="M26.5 22.5C23.5 22.8 21.5 24.5 21.2 27.5C20.8 31.5 20.8 34.5 21.2 38.5C21.5 41.5 23.5 43.2 26.5 43.5C30.5 43.8 35.5 43.8 39.5 43.5C42.5 43.2 44.5 41.5 44.8 38.5C45.2 34.5 45.2 31.5 44.8 27.5C44.5 24.5 42.5 22.8 39.5 22.5C35.5 22.2 30.5 22.2 26.5 22.5ZM30.5 28.5L37.5 33L30.5 37.5V28.5Z" fill="black"/>
</g>
</svg>
