<svg preserveAspectRatio="none" width="100%" height="100%" overflow="visible" style="display: block;" viewBox="0 0 65.9333 65.9333" fill="none" xmlns="http://www.w3.org/2000/svg">
<g id="Socials">
<circle id="Ellipse 178" cx="32.9668" cy="32.967" r="24.532" fill="var(--fill-0, #F3801A)"/>
<path id="Vector" d="M40.0388 17.6441H25.8949C23.7074 17.6465 21.6102 18.5165 20.0635 20.0632C18.5167 21.61 17.6467 23.7072 17.6443 25.8947V40.0386C17.6467 42.2261 18.5167 44.3233 20.0635 45.87C21.6102 47.4168 23.7074 48.2868 25.8949 48.2892H40.0388C42.2263 48.2868 44.3235 47.4168 45.8703 45.87C47.417 44.3233 48.287 42.2261 48.2894 40.0386V25.8947C48.287 23.7072 47.417 21.61 45.8703 20.0632C44.3235 18.5165 42.2263 17.6465 40.0388 17.6441ZM32.9669 40.0386C31.5682 40.0386 30.2009 39.6238 29.0379 38.8467C27.8749 38.0697 26.9685 36.9652 26.4332 35.673C25.898 34.3807 25.7579 32.9588 26.0308 31.587C26.3037 30.2152 26.9772 28.9551 27.9662 27.966C28.9553 26.977 30.2154 26.3035 31.5872 26.0306C32.959 25.7577 34.3809 25.8978 35.6732 26.433C36.9654 26.9683 38.0699 27.8747 38.847 29.0377C39.624 30.2007 40.0388 31.5679 40.0388 32.9666C40.0368 34.8416 39.2911 36.6393 37.9653 37.9651C36.6395 39.2909 34.8419 40.0366 32.9669 40.0386ZM41.8068 25.8947C41.4571 25.8947 41.1153 25.791 40.8245 25.5968C40.5338 25.4025 40.3072 25.1264 40.1734 24.8033C40.0396 24.4802 40.0045 24.1248 40.0728 23.7818C40.141 23.4389 40.3094 23.1238 40.5566 22.8766C40.8039 22.6293 41.1189 22.4609 41.4619 22.3927C41.8048 22.3245 42.1603 22.3595 42.4834 22.4933C42.8064 22.6271 43.0825 22.8537 43.2768 23.1445C43.4711 23.4352 43.5748 23.7771 43.5748 24.1267C43.5748 24.5956 43.3885 25.0453 43.0569 25.3769C42.7254 25.7084 42.2757 25.8947 41.8068 25.8947ZM37.6815 32.9666C37.6815 33.8991 37.405 34.8106 36.8869 35.5859C36.3689 36.3613 35.6325 36.9655 34.7711 37.3224C33.9096 37.6792 32.9616 37.7726 32.0471 37.5907C31.1325 37.4088 30.2925 36.9597 29.6331 36.3004C28.9738 35.641 28.5247 34.801 28.3428 33.8864C28.1609 32.9719 28.2543 32.0239 28.6111 31.1624C28.968 30.301 29.5722 29.5646 30.3476 29.0466C31.1229 28.5285 32.0344 28.252 32.9669 28.252C34.2173 28.252 35.4164 28.7487 36.3006 29.6329C37.1848 30.5171 37.6815 31.7162 37.6815 32.9666Z" fill="var(--fill-0, #101010)"/>
</g>
</svg>
