<svg preserveAspectRatio="none" width="100%" height="100%" overflow="visible" style="display: block;" viewBox="0 0 65.9333 65.9333" fill="none" xmlns="http://www.w3.org/2000/svg">
<g id="Socials">
<circle id="Ellipse 178" cx="32.9666" cy="32.967" r="24.532" fill="var(--fill-0, #F3801A)"/>
<path id="Vector" d="M48.3954 24.7136C48.2587 24.1786 47.9967 23.6839 47.6311 23.2702C47.2656 22.8564 46.8069 22.5355 46.2929 22.3339C41.3189 20.4128 33.4022 20.4302 32.9669 20.4302C32.5316 20.4302 24.615 20.4128 19.641 22.3339C19.127 22.5355 18.6683 22.8564 18.3027 23.2702C17.9372 23.6839 17.6752 24.1786 17.5385 24.7136C17.1627 26.1617 16.7158 28.8083 16.7158 33.199C16.7158 37.5897 17.1627 40.2363 17.5385 41.6844C17.675 42.2196 17.9369 42.7146 18.3024 43.1286C18.668 43.5427 19.1268 43.8638 19.641 44.0655C24.406 45.9039 31.8642 45.9678 32.8712 45.9678H33.0627C34.0697 45.9678 41.5322 45.9039 46.2929 44.0655C46.807 43.8638 47.2659 43.5427 47.6314 43.1286C47.997 42.7146 48.2589 42.2196 48.3954 41.6844C48.7712 40.2334 49.2181 37.5897 49.2181 33.199C49.2181 28.8083 48.7712 26.1617 48.3954 24.7136ZM37.9322 33.6822L30.9675 38.3254C30.88 38.3837 30.7784 38.4172 30.6734 38.4223C30.5684 38.4274 30.4641 38.4038 30.3714 38.3542C30.2787 38.3046 30.2013 38.2308 30.1473 38.1406C30.0933 38.0504 30.0649 37.9473 30.0649 37.8422V28.5558C30.0649 28.4507 30.0933 28.3475 30.1473 28.2574C30.2013 28.1672 30.2787 28.0933 30.3714 28.0437C30.4641 27.9941 30.5684 27.9706 30.6734 27.9757C30.7784 27.9808 30.88 28.0143 30.9675 28.0726L37.9322 32.7158C38.0118 32.7688 38.0771 32.8406 38.1223 32.9249C38.1675 33.0092 38.1911 33.1034 38.1911 33.199C38.1911 33.2946 38.1675 33.3888 38.1223 33.4731C38.0771 33.5574 38.0118 33.6292 37.9322 33.6822Z" fill="var(--fill-0, #101010)"/>
</g>
</svg>
