<svg width="144" height="74" viewBox="0 0 144 74" fill="none" xmlns="http://www.w3.org/2000/svg">
<g id="About">
<path id="Vector 14" d="M0.0621923 71.0059C-0.210062 72.0764 0.437038 73.1649 1.50753 73.4372C2.57802 73.7094 3.66653 73.0623 3.93878 71.9918L2.00049 71.4989L0.0621923 71.0059ZM2.00049 71.4989C3.93878 71.9918 3.93871 71.9921 3.93869 71.9922C3.93874 71.992 3.93876 71.9919 3.93886 71.9915C3.93907 71.9907 3.93946 71.9892 3.94004 71.9869C3.94118 71.9825 3.94306 71.9752 3.94567 71.9651C3.95089 71.9449 3.95903 71.9135 3.9701 71.8714C3.99224 71.7871 4.0261 71.6595 4.07174 71.4914C4.16302 71.1552 4.30138 70.6569 4.48728 70.0178C4.85917 68.7395 5.42088 66.8997 6.17607 64.6696C7.688 60.2049 9.96785 54.1986 13.0417 48.0104C16.1203 41.8127 19.9634 35.4978 24.5803 30.3722C29.2016 25.2416 34.4966 21.4137 40.4708 19.9681L40.0005 18.0242L39.5301 16.0803C32.5044 17.7803 26.5494 22.2094 21.6082 27.6951C16.6625 33.1858 12.6307 39.8465 9.4593 46.231C6.28312 52.6251 3.93797 58.8079 2.38741 63.3866C1.61135 65.6783 1.03243 67.5739 0.646507 68.9005C0.453507 69.5639 0.308663 70.0854 0.211468 70.4434C0.162867 70.6225 0.12617 70.7606 0.101314 70.8553C0.0888861 70.9026 0.0794172 70.939 0.0728997 70.9642C0.069641 70.9768 0.06712 70.9866 0.0653358 70.9936C0.0644436 70.9971 0.0637357 70.9999 0.0632118 71.0019C0.06295 71.0029 0.0626948 71.0039 0.062564 71.0044C0.0623552 71.0053 0.0621923 71.0059 2.00049 71.4989ZM40.0005 18.0242L40.4708 19.9681C46.3603 18.543 51.7656 19.8311 57.1012 22.5761C62.5039 25.3555 67.6412 29.5197 73.0232 33.7023C78.3123 37.8126 83.8431 41.9435 89.7675 44.2201C95.8034 46.5396 102.281 46.9498 109.346 43.653L108.5 41.8406L107.655 40.0283C101.72 42.7979 96.385 42.4779 91.2023 40.4863C85.9079 38.4518 80.8137 34.6907 75.4777 30.5439C70.2348 26.4694 64.7471 22.0113 58.931 19.0192C53.0479 15.9925 46.6406 14.3598 39.5301 16.0803L40.0005 18.0242ZM108.5 41.8406L109.346 43.653C122.842 37.355 131.483 26.6534 136.73 17.6248C139.358 13.1022 141.153 8.96919 142.293 5.96096C142.863 4.45574 143.27 3.22894 143.537 2.37179C143.671 1.94312 143.769 1.60661 143.835 1.37364C143.867 1.25714 143.892 1.1665 143.909 1.10315C143.918 1.07147 143.924 1.0466 143.929 1.02873C143.932 1.0198 143.933 1.01261 143.935 1.00719C143.936 1.00449 143.936 1.00222 143.937 1.0004C143.937 0.999491 143.937 0.998459 143.937 0.998004C143.937 0.997086 143.938 0.996278 142 0.498871C140.063 0.00146374 140.063 0.00087899 140.064 0.000405401C140.064 0.000395477 140.064 3.11434e-05 140.064 1.00136e-05C140.064 -3.30806e-05 140.064 0.000364393 140.063 0.00119963C140.063 0.0028702 140.062 0.00629178 140.061 0.0114425C140.058 0.021744 140.053 0.0389605 140.047 0.0629162C140.034 0.11083 140.014 0.185688 139.985 0.286087C139.929 0.486904 139.84 0.789778 139.718 1.18348C139.473 1.97108 139.091 3.12102 138.552 4.5437C137.473 7.39129 135.768 11.3188 133.271 15.615C128.268 24.2241 120.159 34.1933 107.655 40.0283L108.5 41.8406Z" fill="#F3801A"/>
</g>
</svg>
