<svg width="93" height="174" viewBox="0 0 93 174" fill="none" xmlns="http://www.w3.org/2000/svg">
<g id="About">
<path id="Vector 15" d="M1.77493 1.60386C1.99391 0.521218 3.04909 -0.178919 4.13173 0.0400635C5.21438 0.259053 5.91451 1.31423 5.69553 2.39688L3.73523 2.00037L1.77493 1.60386ZM3.73523 2.00037C5.69553 2.39688 5.6956 2.39651 5.69564 2.39631C5.69561 2.39645 5.69563 2.39639 5.69557 2.39668C5.69545 2.39724 5.69521 2.39843 5.69485 2.40025C5.69413 2.40388 5.6929 2.41 5.69121 2.41859C5.68781 2.43576 5.68251 2.46277 5.67543 2.49939C5.66129 2.57261 5.64007 2.6842 5.61291 2.83213C5.55858 3.12802 5.48048 3.56914 5.38759 4.13934C5.20176 5.28004 4.957 6.93567 4.72483 8.97727C4.25995 13.0652 3.84837 18.6767 4.05468 24.7871C4.47222 37.1541 7.39992 50.9223 16.7798 58.68L15.5051 60.2212L14.2305 61.7624C3.43871 52.8369 0.481442 37.4946 0.0569514 24.9221C-0.157765 18.5626 0.270359 12.747 0.750444 8.52531C0.990756 6.41209 1.24479 4.69226 1.43963 3.49619C1.53708 2.89802 1.61979 2.43044 1.67868 2.10972C1.70813 1.94935 1.73163 1.82566 1.74805 1.74068C1.75626 1.69819 1.76269 1.66537 1.76722 1.64249C1.76948 1.63105 1.77127 1.62208 1.77256 1.61563C1.7732 1.61241 1.77372 1.60982 1.77412 1.60785C1.77432 1.60687 1.77452 1.60587 1.77462 1.60538C1.77479 1.60454 1.77493 1.60386 3.73523 2.00037ZM15.5051 60.2212L16.7798 58.68C26.3425 66.5889 38.434 67.838 51.0891 69.7083C63.5298 71.547 76.4145 74.006 85.8646 85.2112L84.3357 86.5006L82.8068 87.79C74.4219 77.8479 62.9771 75.5088 50.5043 73.6654C38.2457 71.8536 24.8395 70.5367 14.2305 61.7624L15.5051 60.2212ZM84.3357 86.5006L85.8646 85.2112C90.7966 91.0593 92.3698 99.7171 92.2189 108.97C92.0669 118.293 90.1568 128.615 87.7114 138.176C85.262 147.754 82.2538 156.652 79.861 163.15C78.6639 166.401 77.6189 169.056 76.8722 170.901C76.4987 171.824 76.1997 172.545 75.9934 173.036C75.8902 173.281 75.8102 173.47 75.7557 173.598C75.7284 173.662 75.7074 173.71 75.6932 173.744C75.686 173.76 75.6805 173.773 75.6767 173.782C75.6748 173.786 75.6734 173.789 75.6723 173.792C75.6718 173.793 75.6714 173.794 75.6711 173.795C75.6707 173.796 75.6705 173.796 73.8356 173.001C72.0006 172.205 72.0006 172.205 72.0006 172.205C72.0008 172.204 72.001 172.204 72.0014 172.203C72.002 172.202 72.0031 172.199 72.0047 172.196C72.0077 172.188 72.0125 172.177 72.0189 172.163C72.0317 172.133 72.0511 172.088 72.0769 172.027C72.1285 171.906 72.2054 171.725 72.3054 171.487C72.5054 171.011 72.7978 170.306 73.1643 169.401C73.8975 167.589 74.9268 164.974 76.1074 161.768C78.4702 155.351 81.4311 146.589 83.8361 137.185C86.2451 127.766 88.0747 117.784 88.2194 108.905C88.3653 99.9571 86.7922 92.5156 82.8068 87.79L84.3357 86.5006Z" fill="#F3801A"/>
</g>
</svg>
